<?xml version="1.0" standalone="no"?>
<!DOCTYPE svg PUBLIC "-//W3C//DTD SVG 20010904//EN"
 "http://www.w3.org/TR/2001/REC-SVG-20010904/DTD/svg10.dtd">
<svg version="1.0" xmlns="http://www.w3.org/2000/svg"
 width="500.000000pt" height="500.000000pt" viewBox="0 0 500.000000 500.000000"
 preserveAspectRatio="xMidYMid meet">

<g transform="translate(0.000000,500.000000) scale(0.100000,-0.100000)"
fill="#000000" stroke="none">
<path d="M660 3032 c-182 -61 -319 -198 -370 -370 -7 -23 -11 -44 -8 -47 3 -3
37 13 76 36 54 31 79 53 103 91 38 59 112 121 189 157 49 23 67 26 170 26 105
0 120 -2 174 -28 76 -35 136 -85 186 -152 33 -45 112 -102 183 -133 13 -6 -4
49 -38 123 -57 125 -165 228 -295 281 -56 24 -82 28 -190 31 -101 2 -135 0
-180 -15z"/>
<path d="M802 2818 c-5 -7 -22 -53 -37 -103 -21 -70 -35 -97 -61 -122 -40 -38
-41 -38 -288 -63 -176 -17 -206 -23 -195 -35 3 -2 99 -14 213 -25 125 -12 219
-26 236 -35 45 -23 76 -73 102 -165 19 -70 27 -86 45 -88 26 -4 34 10 61 105
24 86 49 125 95 146 20 10 113 24 237 37 283 29 284 35 3 62 -278 26 -289 32
-338 193 -31 101 -48 123 -73 93z m49 -266 c12 -32 48 -42 145 -42 54 0 83 -4
79 -10 -3 -5 -47 -10 -96 -10 -82 0 -92 -2 -114 -25 -14 -13 -25 -34 -25 -47
0 -32 -11 -68 -20 -68 -4 0 -10 22 -14 48 -10 79 -21 87 -123 90 -124 4 -135
15 -22 22 115 6 135 18 145 89 9 66 17 72 27 21 5 -25 13 -55 18 -68z"/>
<path d="M1510 2489 l0 -260 53 3 52 3 3 103 3 102 196 -2 196 -3 35 -102 35
-103 58 0 59 0 -35 96 c-19 53 -35 100 -35 104 0 4 16 11 35 14 22 4 42 17 56
37 18 26 21 41 17 125 -3 91 -5 97 -31 120 l-28 24 -335 0 -334 0 0 -261z
m625 106 l0 -50 -257 -3 -258 -2 0 55 0 55 258 -2 257 -3 0 -50z"/>
<path d="M2350 2490 l0 -260 319 0 c184 0 331 4 345 10 14 5 35 24 46 42 18
30 19 49 17 221 l-2 189 -33 29 -32 29 -330 0 -330 0 0 -260z m615 105 l0 -50
-257 -3 -258 -2 0 55 0 55 258 -2 257 -3 0 -50z m0 -210 l0 -50 -255 0 -255 0
-3 53 -3 52 258 -2 258 -3 0 -50z"/>
<path d="M3182 2624 l3 -126 33 -29 32 -29 280 0 280 0 0 -49 c0 -35 -4 -51
-16 -55 -9 -3 -150 -6 -315 -6 l-299 0 0 -50 0 -50 319 0 c207 0 329 4 350 11
56 20 61 43 61 289 l0 220 -50 0 -50 0 0 -105 0 -105 -257 2 -258 3 -3 103 -3
102 -55 0 -56 0 4 -126z"/>
<path d="M4020 2700 l0 -50 308 -2 307 -3 0 -50 0 -50 -283 -5 -284 -5 -24
-28 c-21 -25 -24 -38 -24 -113 0 -100 15 -137 61 -153 21 -7 143 -11 350 -11
l319 0 0 50 0 50 -302 0 c-167 0 -309 4 -316 9 -9 5 -12 24 -10 52 l3 44 282
5 283 5 27 28 c27 26 28 32 28 123 0 95 0 96 -33 125 l-32 29 -330 0 -330 0 0
-50z"/>
<path d="M294 2323 c58 -166 191 -297 355 -353 84 -28 252 -28 343 0 132 41
263 152 323 275 18 39 37 81 40 94 7 23 6 23 -51 -10 -104 -58 -110 -63 -163
-121 -37 -41 -75 -69 -128 -95 -65 -32 -86 -37 -163 -41 -70 -4 -103 0 -158
17 -74 22 -175 88 -205 134 -18 28 -49 50 -149 106 l-58 33 14 -39z"/>
<path d="M3311 1976 c-7 -8 -11 -30 -9 -48 l3 -33 98 -3 c89 -2 97 -4 97 -22
0 -19 -7 -20 -100 -20 -83 0 -100 -3 -100 -15 0 -13 17 -15 113 -13 l112 3 0
45 0 45 -97 3 c-78 2 -98 6 -98 17 0 12 19 15 100 15 93 0 100 1 100 20 0 19
-7 20 -104 20 -78 0 -107 -4 -115 -14z"/>
<path d="M3570 1970 c0 -17 7 -20 50 -20 l50 0 0 -65 c0 -51 3 -65 15 -65 12
0 15 14 15 65 l0 65 50 0 c43 0 50 3 50 20 0 19 -7 20 -115 20 -108 0 -115 -1
-115 -20z"/>
<path d="M3830 1918 c0 -44 5 -79 12 -86 8 -8 47 -12 110 -12 115 0 121 5 116
103 -2 49 -6 62 -20 65 -16 3 -18 -5 -18 -67 l0 -71 -80 0 -79 0 -3 67 c-2 55
-6 68 -20 71 -16 3 -18 -5 -18 -70z"/>
<path d="M4100 1905 l0 -86 113 3 112 3 3 68 c2 42 -2 74 -9 83 -8 10 -38 14
-115 14 l-104 0 0 -85z m200 -5 l0 -50 -85 0 -85 0 0 50 0 50 85 0 85 0 0 -50z"/>
<path d="M4370 1970 c0 -11 7 -20 15 -20 8 0 15 9 15 20 0 11 -7 20 -15 20 -8
0 -15 -9 -15 -20z"/>
<path d="M4448 1979 c-14 -8 -18 -24 -18 -72 0 -36 5 -68 12 -75 8 -8 47 -12
110 -12 112 0 118 4 118 89 0 72 -13 81 -118 81 -48 0 -95 -5 -104 -11z m182
-79 l0 -50 -80 0 -80 0 0 50 0 50 80 0 80 0 0 -50z"/>
<path d="M4370 1880 c0 -47 3 -60 15 -60 12 0 15 13 15 60 0 47 -3 60 -15 60
-12 0 -15 -13 -15 -60z"/>
</g>
</svg>
