<?xml version="1.0" standalone="no"?>
<!DOCTYPE svg PUBLIC "-//W3C//DTD SVG 20010904//EN"
 "http://www.w3.org/TR/2001/REC-SVG-20010904/DTD/svg10.dtd">
<svg version="1.0" xmlns="http://www.w3.org/2000/svg"
 width="500.000000pt" height="500.000000pt" viewBox="0 0 500.000000 500.000000"
 preserveAspectRatio="xMidYMid meet">

<g transform="translate(0.000000,500.000000) scale(0.100000,-0.100000)"
fill="#000000" stroke="none">
<path d="M0 2500 l0 -2500 2500 0 2500 0 0 2500 0 2500 -2500 0 -2500 0 0
-2500z m1030 516 c130 -53 238 -156 295 -281 34 -74 51 -129 38 -123 -71 31
-150 88 -183 133 -50 67 -110 117 -186 152 -54 26 -69 28 -174 28 -103 0 -121
-3 -170 -26 -77 -36 -151 -98 -189 -157 -24 -38 -49 -60 -103 -91 -39 -23 -73
-39 -76 -36 -8 8 18 85 50 150 38 75 145 183 218 220 109 56 154 65 290 62
108 -3 134 -7 190 -31z m-194 -194 c6 -4 24 -47 39 -97 49 -161 60 -167 338
-193 181 -18 218 -24 206 -37 -3 -2 -97 -13 -209 -25 -127 -13 -217 -27 -238
-37 -45 -21 -75 -71 -102 -171 -22 -78 -25 -83 -49 -80 -22 3 -28 12 -47 79
-34 119 -58 156 -118 179 -16 6 -119 20 -229 31 -278 27 -279 33 -10 60 244
24 247 24 287 62 26 25 40 52 61 122 33 110 44 125 71 107z m1375 -141 c28
-28 29 -33 29 -124 0 -109 -16 -142 -75 -153 -19 -3 -35 -9 -35 -13 0 -3 16
-50 35 -103 l35 -98 -59 0 -59 0 -18 53 c-9 28 -25 76 -36 105 l-19 52 -195 0
-194 0 0 -105 0 -105 -55 0 -55 0 0 260 0 260 336 0 336 0 29 -29z m831 0 l33
-29 2 -189 c2 -172 0 -192 -17 -221 -11 -18 -32 -37 -46 -42 -14 -6 -161 -10
-345 -10 l-319 0 0 260 0 260 330 0 330 0 32 -29z m250 -73 l3 -103 258 -3
257 -2 0 105 0 105 50 0 50 0 0 -220 c0 -240 -5 -265 -55 -288 -18 -9 -120
-12 -351 -12 l-325 0 3 53 3 52 310 5 310 5 3 48 3 47 -275 0 c-184 0 -283 4
-300 11 -43 20 -56 65 -56 188 l0 111 55 0 54 0 3 -102z m1420 73 c33 -29 33
-29 33 -126 0 -97 0 -97 -33 -126 l-32 -29 -268 0 c-147 0 -273 -4 -280 -9 -8
-5 -12 -23 -10 -47 l3 -39 310 -5 310 -5 3 -52 3 -53 -325 0 c-231 0 -333 3
-351 12 -41 19 -55 57 -55 152 0 75 3 88 24 113 l24 28 284 5 283 5 0 50 0 50
-307 3 -308 2 0 50 0 50 330 0 330 0 32 -29z m-4327 -379 c33 -19 88 -63 122
-98 40 -40 85 -74 130 -96 65 -32 73 -33 183 -33 109 0 119 2 183 32 47 22 90
54 141 105 46 46 100 87 146 112 69 37 72 37 65 15 -17 -62 -79 -169 -124
-217 -66 -68 -159 -127 -239 -152 -78 -24 -252 -27 -323 -6 -174 53 -314 187
-375 358 -15 44 -19 45 91 -20z m3185 -357 c0 -12 -17 -15 -90 -15 -72 0 -90
-3 -90 -15 0 -11 19 -15 88 -17 l87 -3 0 -40 0 -40 -102 -3 c-87 -2 -103 0
-103 13 0 12 16 15 90 15 72 0 90 3 90 15 0 11 -19 15 -87 17 l-88 3 -3 28
c-6 54 -1 57 108 57 82 0 100 -3 100 -15z m250 0 c0 -11 -12 -15 -45 -15 l-45
0 0 -60 c0 -53 -2 -60 -20 -60 -18 0 -20 7 -20 60 l0 60 -45 0 c-33 0 -45 4
-45 15 0 12 19 15 110 15 91 0 110 -3 110 -15z m60 -45 l0 -60 75 0 75 0 0 60
c0 47 3 60 15 60 13 0 15 -13 13 -72 l-3 -73 -100 0 -100 0 -3 73 c-2 59 0 72
13 72 12 0 15 -13 15 -60z m424 44 c3 -9 6 -35 6 -59 0 -75 0 -75 -116 -75
l-104 0 0 75 0 75 104 0 c85 0 105 -3 110 -16z m66 1 c0 -8 -7 -15 -15 -15 -8
0 -15 7 -15 15 0 8 7 15 15 15 8 0 15 -7 15 -15z m235 -60 l0 -70 -100 0 -100
0 -3 59 c-5 89 -7 87 105 84 l98 -3 0 -70z m-235 -20 c0 -42 -3 -55 -15 -55
-12 0 -15 13 -15 55 0 42 3 55 15 55 12 0 15 -13 15 -55z"/>
<path d="M819 2655 c-4 -5 -9 -31 -13 -56 -10 -71 -30 -83 -145 -89 -113 -7
-102 -18 22 -22 102 -3 113 -11 123 -90 4 -26 10 -48 14 -48 9 0 20 36 20 68
0 13 11 34 25 47 22 23 32 25 107 25 46 0 90 5 98 10 10 7 -12 10 -72 10 -132
0 -146 9 -165 110 -5 25 -11 41 -14 35z"/>
<path d="M1620 2555 l0 -55 258 2 257 3 3 44 c2 28 -1 47 -10 52 -7 5 -124 9
-260 9 l-248 0 0 -55z"/>
<path d="M2450 2555 l0 -55 258 2 257 3 0 50 0 50 -257 3 -258 2 0 -55z"/>
<path d="M2450 2350 l0 -50 261 0 260 0 -3 48 -3 47 -257 3 -258 2 0 -50z"/>
<path d="M4120 1885 l0 -46 78 3 77 3 3 43 3 42 -80 0 -81 0 0 -45z"/>
<path d="M4430 1885 l0 -45 75 0 75 0 0 45 0 45 -75 0 -75 0 0 -45z"/>
</g>
</svg>
